<svg width="76" height="30" viewBox="0 0 76 30" fill="none" xmlns="http://www.w3.org/2000/svg">
<path d="M0.429786 13.3637C1.11744 13.2778 2.4068 12.848 2.92254 12.6761C3.52424 12.5901 4.72765 12.5042 6.44679 12.4182C6.53275 12.762 6.53276 12.848 6.61872 12.848L6.87658 12.6761C7.04849 12.5901 7.13444 12.5901 7.13444 12.5041C7.30635 12.4182 7.47828 12.3322 7.73615 12.2463C8.25189 12.1603 9.19741 11.8165 9.71316 11.7305C10.4868 11.5586 12.12 10.785 12.6357 10.699C12.8936 10.6131 13.0655 10.6131 13.1514 10.699C13.4093 10.6131 15.0425 10.2693 15.3004 10.2693C15.5583 10.1833 16.4178 10.0114 16.7617 9.92543C17.5353 9.75351 24.3259 10.2693 24.6697 10.6131C25.6153 11.6446 24.5838 7.86246 24.9276 6.83097C26.045 3.13481 26.3889 2.79098 26.3029 2.27524C26.045 0.813964 25.2714 0.212258 23.8961 0.47013C22.177 0.813959 21.2314 1.3297 20.8876 2.18928C20.1999 2.27523 19.1685 3.30673 18.6527 3.39268L17.2774 3.65056C15.4723 4.51013 11.3464 5.71352 9.88508 7.34671C8.8536 7.60458 7.65019 8.12034 6.36083 8.80799C5.15743 9.49565 4.21191 9.92544 3.52425 10.0974C3.09447 10.2693 2.40681 10.6131 1.46128 11.3867C0.429797 12.0744 0 12.5041 0 12.762C0 13.1918 0.171914 13.3637 0.429786 13.3637Z" fill="white"/>
<path d="M75.3847 16.7161L75.2128 16.3723C74.8689 15.6846 74.0953 15.2548 73.0638 14.997C71.8604 14.7391 70.743 14.5672 69.4536 14.5672C68.0783 14.4812 67.3047 14.3953 66.9609 14.2233C64.2102 13.5357 61.0298 12.6761 57.5056 11.4727C57.3336 11.3868 57.0758 11.3008 56.8179 11.2148H54.4971C54.4971 11.2148 54.497 11.3008 54.4111 11.3008C53.8094 12.0744 53.1217 12.6761 52.4341 13.2778C52.606 13.2778 52.7779 13.3638 52.9498 13.4497C53.2937 13.3638 53.8094 13.5357 54.3252 13.9655C54.8409 14.3953 55.0988 14.6531 55.1847 14.6531L55.3566 14.4812L55.0988 14.0514C55.4426 14.3093 55.7005 14.4812 55.8724 14.3953C56.0443 14.3093 56.2162 14.2233 56.3881 14.2233C56.4741 14.2233 56.9898 14.3093 57.8494 14.5672C58.709 14.8251 59.3966 14.8251 59.8264 14.7391C60.686 14.997 61.5456 15.1689 62.4051 15.3408C63.9524 15.5987 64.8119 15.8565 66.789 16.5442C67.1328 16.7161 67.6485 16.8021 68.1642 16.7161C68.1642 16.8021 68.1643 16.8021 68.2502 16.974L68.68 16.888C68.594 16.888 68.5081 16.8021 68.4221 16.7161C68.766 16.7161 69.1957 16.7161 69.8834 16.6302V16.888H70.0553L70.1413 16.6302C70.3132 16.6302 70.5711 16.6302 70.8289 16.7161C73.1498 16.8021 74.697 16.974 75.5566 17.2319C75.4706 17.0599 75.4706 16.8021 75.3847 16.7161ZM60.6 14.4812C60.6 14.4812 60.5141 14.4812 60.4281 14.3953C60.3421 14.2234 60.3421 14.1374 60.4281 14.1374C60.5141 14.0514 60.6 14.0514 60.6 14.1374L60.7719 14.4812C60.686 14.3953 60.6 14.3953 60.6 14.4812ZM69.6255 15.6846C69.5396 15.7706 69.3677 15.6846 69.2817 15.4268L69.3677 15.3408C69.3677 15.2548 69.4536 15.2548 69.4536 15.1689L69.5396 15.0829C69.5396 15.0829 69.6255 15.2548 69.7975 15.5127L69.6255 15.6846ZM71.5166 15.5127L71.2587 15.2548C71.2587 15.2548 71.3447 14.997 71.4306 14.911C71.5166 14.911 71.5166 14.911 71.6025 14.911C71.6025 15.0829 71.6026 15.3408 71.5166 15.5127Z" fill="white"/>
<path d="M48.5658 20.8418C48.222 19.4665 47.0186 17.5755 46.8467 17.3176L45.9871 17.0597C45.9011 17.0597 45.4714 16.8018 45.2135 16.7159C44.6977 16.544 44.182 16.458 43.7522 16.544L43.3224 16.458C43.3224 16.544 43.3224 16.6299 43.4084 16.6299C42.8926 16.8018 42.2909 17.1457 41.6892 17.6614L41.3454 19.7244L41.6892 20.0682C42.119 20.584 42.4628 21.4435 42.3769 21.7014C42.205 21.9593 42.0331 22.561 41.6892 23.2486C41.0875 24.7099 40.6578 25.3976 39.7122 26.0852C39.4544 26.3431 39.1105 26.6869 38.7667 27.0308C38.7667 27.2027 38.6807 27.3746 38.5948 27.4605C38.165 28.4061 38.4229 28.9218 39.0246 29.2656C40.056 29.0078 41.1735 28.7499 42.205 28.492C42.2909 28.492 42.2909 28.4061 42.3769 28.4061C42.4628 28.3201 42.6348 28.2341 42.7207 28.2341C42.8067 28.1482 42.8926 28.1482 42.9786 28.0622C46.0731 25.9993 47.8782 24.1942 48.4799 22.6469C48.6518 22.0452 48.6518 21.4435 48.5658 20.8418ZM41.3454 25.9133L41.0875 25.7414C41.1735 25.6554 41.2594 25.5695 41.6033 25.7414L41.3454 25.9133ZM44.5258 23.5925C44.4399 23.7644 44.4399 23.8503 44.3539 23.8503C44.182 23.7644 44.096 23.5925 44.182 23.3346C44.2679 23.1627 44.3539 23.0767 44.4399 23.1627C44.6118 23.2486 44.6118 23.3346 44.5258 23.5925ZM46.8467 23.9363C46.8467 24.0222 46.6748 23.9363 46.4169 23.9363C46.4169 23.8503 46.3309 23.6784 46.4169 23.6784C46.4169 23.5925 46.5028 23.6784 46.6747 23.5925C46.7607 23.6784 46.8467 23.7644 46.8467 23.9363Z" fill="white"/>
<path d="M24.9277 13.7075C25.0136 13.7935 25.0137 13.8794 25.0137 13.9654C24.8417 14.1373 24.7558 14.0513 24.5839 13.8794C24.4979 13.7935 24.4979 13.7075 24.5839 13.7075C24.7558 13.6215 24.8417 13.6215 24.9277 13.7075ZM26.303 13.8794L26.2171 14.2232L25.8732 14.0513L26.303 13.8794ZM21.8332 0.98583C23.0366 -0.217571 24.0681 -0.303524 25.0137 0.642006L25.6153 1.2437C27.0766 2.70498 28.7098 4.68199 30.7728 7.17475C32.4919 9.32368 34.6409 11.7305 37.3055 14.4811L37.3915 14.5671C37.5634 14.653 37.9072 14.8249 38.0791 15.0828C38.337 15.2547 38.6808 15.5986 39.0247 15.9424C39.2825 16.2003 40.7438 17.4037 41.2596 17.9194L43.6664 20.0683C43.9242 19.8964 44.0962 19.8105 44.2681 19.8105L44.0961 20.2402L43.7523 20.1543L44.0102 20.4122L44.2681 20.5841C44.2681 20.4981 44.354 20.4122 44.44 20.3262C44.6119 20.1543 45.2996 19.7245 45.7294 19.2947C46.0732 18.9509 46.5889 18.0054 46.5889 17.9194L46.9328 17.8335L47.7064 17.0598C47.9642 16.802 48.8238 15.6845 48.9957 15.5126C49.3396 15.1688 50.2851 14.0513 50.7149 13.6215C51.8323 12.5041 53.0357 11.5586 54.411 10.7849C55.8723 10.0113 56.9038 10.0113 57.6774 10.8709L57.8493 11.0428C58.451 11.6445 58.537 12.8479 57.3336 14.0513C56.3021 15.0828 55.5285 15.5126 55.0127 15.1688L54.2391 15.4266C53.9812 15.3407 53.8093 15.3407 53.6374 15.5126C53.1217 15.5986 52.6059 15.8564 52.0042 16.5441L50.8008 17.7475C50.543 18.0054 49.4255 20.2403 48.7379 21.1858C48.5659 21.2717 48.394 21.4436 48.0502 21.7875C47.4485 22.3892 45.9872 24.4522 45.2136 25.2258C44.8698 25.5696 44.6979 25.9994 44.6119 26.3432L44.5259 26.6011C42.8927 28.1483 42.5489 28.5781 40.8298 28.2343C40.314 27.5466 39.7123 26.859 39.0247 26.1713C38.5949 25.7415 37.5634 24.8819 36.1021 23.5066C35.5864 23.1628 34.8128 22.3032 33.6094 21.0998C30.5149 18.0054 27.8502 15.0828 25.8732 12.4181C25.7873 12.3322 25.6153 12.0743 25.3575 11.7305H25.0996L25.1856 11.4726C25.1856 11.3867 25.0996 11.3007 25.0137 11.2147L23.0366 9.23773C20.7158 7.00284 19.0826 4.68199 21.5754 1.2437C21.3175 1.2437 20.8877 1.15774 20.7158 0.98583L20.5439 0.899867L20.6298 0.813918L20.7158 0.642006C20.8877 0.470092 21.2315 0.556041 21.7473 0.727955L21.8332 0.98583ZM35.8443 19.3807C35.8443 19.4666 35.9302 19.5526 36.0162 19.6385C36.1021 19.7245 36.1881 19.6385 36.36 19.4666C36.446 19.2947 36.446 19.2947 36.446 19.2088C36.36 19.2088 36.2741 19.1228 36.1881 19.0368L35.8443 19.3807ZM22.0052 3.65051C21.7473 3.47859 21.4894 3.56454 21.4034 3.73646C21.4894 3.82242 21.5754 3.82242 21.6613 3.82242L22.0052 3.65051ZM32.32 13.6215C32.1481 13.4496 31.9762 13.3637 31.8043 13.5356C31.7183 13.6215 31.7183 13.7075 31.8902 13.7935C32.0621 13.9654 32.2341 13.9654 32.406 13.8794C32.4919 13.7935 32.4919 13.7075 32.32 13.6215ZM46.7608 27.0309C46.8468 27.1168 46.8468 27.2028 46.7608 27.2887C46.5889 27.4607 46.5889 27.4607 46.503 27.4607C46.503 27.3747 46.503 27.2887 46.5889 27.2028L46.7608 27.0309ZM35.9302 16.2862L36.2741 16.3722C36.2741 16.2862 36.2741 16.2003 36.1881 16.1143C36.0162 15.9424 35.8443 15.9424 35.6723 16.2003C35.7583 16.2003 35.8443 16.2862 35.9302 16.2862ZM47.4485 27.3747C47.5345 27.4607 47.5344 27.5466 47.5344 27.6326C47.4485 27.7185 47.3625 27.7185 47.1906 27.5466C47.1047 27.3747 47.2766 27.1168 47.4485 27.3747ZM47.6204 26.6011C47.7923 26.5151 48.2221 26.687 48.9957 26.9449L48.9098 27.0309L48.8238 27.2028C48.7378 27.2887 48.394 27.2887 47.7923 27.1168L47.6204 26.6011ZM33.6094 11.6445C33.4375 11.4726 33.3515 11.5586 33.1796 11.7305C33.0936 11.9024 33.0936 11.9024 33.0936 11.9884C33.1796 12.0743 33.2655 12.0743 33.3515 12.0743C33.5234 11.8164 33.6094 11.7305 33.6094 11.6445ZM23.1226 0.642006L23.0366 0.298169C22.7788 0.556041 22.7788 0.642003 22.8647 0.813918L23.1226 0.642006ZM36.9617 14.3092C36.7898 14.1373 36.7898 14.1373 36.7038 14.1373L36.446 14.3092C36.6179 14.4811 36.7038 14.5671 36.7898 14.5671L36.9617 14.3092ZM34.9847 11.7305C35.5864 11.1288 35.2426 12.0743 35.3285 12.2462L34.9847 11.7305ZM37.4775 13.8794L37.5634 13.7075L37.4775 13.5356C37.3915 13.4496 37.3915 13.4496 37.3915 13.3637C37.5634 13.1918 37.5634 13.1918 37.6494 13.1918C37.7353 13.2777 37.7353 13.3637 37.7353 13.4496C37.8213 13.5356 37.9072 13.4496 38.0791 13.6215C38.1651 13.7075 38.2511 13.7935 38.1651 13.7935C38.1651 13.8794 37.9072 13.8794 37.4775 13.8794ZM31.4604 6.31518C31.6324 6.48709 31.6324 6.65901 31.3745 6.83092C31.2885 6.91688 31.2885 6.83092 31.1166 6.74496L30.8587 6.65901C30.7728 6.57306 30.9447 6.4871 31.2026 6.22923L31.4604 6.31518ZM29.3115 3.82242C29.4834 3.65051 29.6553 3.6505 30.0851 3.73646L29.9132 4.16624C29.8272 4.08029 29.5694 4.16625 29.3975 3.99433L29.3115 3.90837V3.82242ZM42.8927 17.3177L42.7208 16.802L43.2366 17.0598L42.8927 17.3177ZM32.8358 5.36965L32.9217 5.62752L32.6638 5.71348L32.406 5.54157C32.4919 5.36965 32.4919 5.36965 32.5779 5.28369L32.8358 5.36965ZM44.6119 17.2317V17.1458C44.6119 17.0598 44.5259 16.9739 44.6119 16.9739C44.6979 16.8879 44.8698 16.8879 45.0417 17.0598C45.1276 17.1458 45.1276 17.2317 45.0417 17.2317C45.0417 17.2317 44.8698 17.2317 44.6119 17.2317ZM40.1421 3.47858L40.6579 3.30667C40.8298 3.47859 40.8298 3.56455 40.7438 3.65051L40.1421 3.47858ZM54.1532 13.6215L54.0672 13.8794C54.1531 13.9654 54.1532 13.8794 54.3251 13.7075C54.411 13.6215 54.411 13.5356 54.3251 13.4496L54.1532 13.6215ZM55.4425 13.5356C56.0442 13.7075 56.3881 13.7075 56.474 13.6215L56.5599 13.5356L56.6459 13.3637C55.8723 13.1058 55.4425 13.0198 55.2706 13.0198L55.4425 13.5356ZM53.8953 9.66752C53.7234 9.83943 53.6374 9.83942 53.5514 9.75346C53.3795 9.58155 53.6374 9.23772 53.5514 9.0658L53.8953 9.66752Z" fill="white"/>
<path d="M50.199 23.3345C50.3709 22.9047 49.9412 22.1311 49.0816 20.9277C48.222 19.7243 47.5343 19.1226 46.9326 18.8648C46.6748 18.7788 46.5028 18.7788 46.245 18.8648C45.7292 19.0367 45.0416 19.5524 44.9556 19.5524L44.8697 19.8962C44.8697 19.8962 44.7837 20.0682 44.7837 20.1541C44.6978 20.326 44.6978 20.4979 44.6978 20.7558V20.9277H44.7837C44.8697 21.0996 44.9556 21.3575 45.2135 21.6154L45.9871 21.7014L46.0731 21.6154C46.245 21.4435 46.5888 21.2716 46.6748 21.3575C46.7607 21.4435 47.0186 21.5294 47.2765 21.6154C47.8782 21.8733 48.136 21.9592 48.3939 22.3031C48.5658 22.475 48.7377 22.6469 48.9956 22.9047L49.5114 23.5924C49.8552 23.6784 50.1131 23.4205 50.199 23.3345ZM47.2765 19.6384C47.2765 19.5524 47.3624 19.5524 47.4484 19.5524C47.4484 19.5524 47.4484 19.6384 47.4484 19.7243H47.3624C47.2765 19.7243 47.3624 19.6384 47.2765 19.6384ZM47.1905 20.4979C47.1905 20.412 47.2765 20.412 47.3624 20.412C47.4484 20.412 47.4484 20.412 47.4484 20.4979C47.4484 20.5839 47.3624 20.5839 47.1905 20.4979ZM48.222 21.5294L48.308 21.6154L48.222 21.7014C48.136 21.7014 48.136 21.6154 48.222 21.5294Z" fill="white"/>
</svg>
