<svg width="196" height="307" viewBox="0 0 196 307" fill="none" xmlns="http://www.w3.org/2000/svg">
<path d="M90.9465 198.79C90.8609 198.191 90.0904 197.934 89.6624 198.191C89.3199 198.362 89.0631 198.533 88.8063 198.705C85.81 199.133 85.1252 201.786 85.2108 204.526C84.954 205.125 84.6972 205.724 84.5259 206.324C84.3547 205.896 84.0979 205.468 83.8411 205.125C83.3274 202.728 82.4714 200.331 80.16 199.133C78.2766 198.105 75.794 198.362 74.4243 200.16C72.5409 202.642 73.825 205.81 75.366 208.121C77.5918 211.46 80.4168 214.542 83.3274 217.452C83.1562 218.309 84.1835 219.165 84.8684 218.394C89.9192 213.001 92.0594 206.067 90.9465 198.79ZM79.5607 203.413C79.3895 203.156 79.1327 202.899 78.9615 202.642C78.9615 202.386 78.8759 202.214 78.8759 201.958C79.3039 202.3 79.6463 202.642 79.9888 202.985C79.7319 203.071 79.6463 203.156 79.5607 203.413ZM86.5805 205.981C86.8373 205.896 87.0085 205.639 87.0085 205.296C87.0085 205.211 87.0085 205.125 87.0085 205.039C87.0942 204.783 87.2654 204.526 87.4366 204.269C86.9229 206.666 86.3237 209.063 85.6388 211.46C85.5532 211.032 85.382 210.604 85.2108 210.262C85.4676 210.09 85.7244 209.833 85.81 209.491C85.81 208.121 86.1525 207.008 86.5805 205.981ZM75.9652 202.899C76.1364 204.526 76.5645 206.067 77.1637 207.436C76.8213 207.008 76.5645 206.58 76.3077 206.238C75.1948 204.783 75.1092 203.67 75.9652 202.899Z" fill="#DEDEDE"/>
<path d="M83.8092 71.1864C81.7546 72.5561 80.2993 74.2683 79.3576 76.3229C78.3303 71.4433 75.9333 64.5947 72.3378 68.019C70.2832 69.9023 71.9954 75.21 72.5946 77.3501C73.9643 81.8873 76.447 85.9109 78.9296 89.9344C79.272 90.5336 80.2137 90.7049 80.6417 90.02C83.8092 84.4555 85.3501 78.463 85.1789 72.0425C85.1789 71.4433 84.4084 70.7584 83.8092 71.1864ZM83.2955 73.9259C83.2955 74.5251 83.2099 75.1244 83.2099 75.638C82.7819 75.2956 82.0114 75.2956 81.7546 75.8092C81.5834 76.1516 81.1553 77.0933 80.6417 78.2062C81.0697 76.5797 82.0114 75.1244 83.2955 73.9259ZM74.1356 75.5524C73.8787 74.6107 73.4507 73.241 73.4507 72.2137C74.3068 77.5214 76.3613 82.2298 79.7 86.5101C79.8712 86.6813 79.9568 86.7669 80.2137 86.7669C80.1281 87.0237 79.9568 87.195 79.8712 87.4518C77.4742 83.7707 75.1628 79.8328 74.1356 75.5524Z" fill="#DEDEDE"/>
<path d="M151.129 221.313C149.332 222.939 148.133 224.908 147.534 227.048C145.822 222.426 142.397 216.005 139.316 219.857C137.603 222.083 140 227.048 141.028 229.017C143.082 233.298 146.164 236.893 149.16 240.489C149.588 241.002 150.616 241.002 150.873 240.317C153.184 234.325 153.783 228.161 152.585 221.912C152.499 221.313 151.729 220.799 151.129 221.313ZM151.044 224.052C151.129 224.651 151.129 225.251 151.215 225.764C150.701 225.507 149.931 225.593 149.76 226.192C149.674 226.535 149.332 227.476 148.989 228.76C149.246 227.048 149.931 225.422 151.044 224.052ZM142.226 227.134C141.884 226.278 141.199 224.908 141.028 223.966C142.654 229.017 145.394 233.383 149.332 237.15C149.503 237.321 149.674 237.321 149.845 237.407C149.76 237.664 149.674 237.835 149.588 238.092C146.763 234.667 143.938 231.157 142.226 227.134Z" fill="#DEDEDE"/>
<path d="M121.033 5.68816C118.807 6.71544 117.009 8.17076 115.811 9.96851C115.639 5.0033 114.355 -2.18769 110.246 0.637341C107.935 2.17827 108.705 7.65712 108.962 9.88291C109.561 14.5913 111.359 18.9573 113.157 23.3232C113.414 24.0081 114.355 24.2649 114.869 23.6656C118.892 18.7004 121.375 13.0504 122.231 6.71544C122.317 6.11619 121.717 5.34573 121.033 5.68816ZM120.091 8.25637C120.005 8.85562 119.834 9.36926 119.663 9.96851C119.235 9.54048 118.55 9.45487 118.122 9.96851C117.951 10.2253 117.266 11.0814 116.667 12.1943C117.437 10.5678 118.636 9.19805 120.091 8.25637ZM110.76 8.42759C110.674 7.48591 110.417 6.03059 110.589 5.0033C110.589 10.3109 111.873 15.3618 114.355 20.1558C114.441 20.327 114.612 20.4982 114.783 20.4982C114.612 20.6694 114.526 20.9262 114.355 21.0974C112.729 16.9883 111.102 12.7935 110.76 8.42759Z" fill="#DEDEDE"/>
<path d="M16.2764 66.4931C16.4476 65.8082 16.5332 65.0378 16.5332 64.2673C16.6188 63.4969 15.7627 63.1544 15.1635 63.4112C11.7392 64.9522 10.4551 68.1196 9.85584 71.5439C9.59902 72.4 9.3422 73.2561 9.08538 74.1121C8.91416 73.5985 8.74294 73.0848 8.57173 72.6568C8.65734 72.5712 8.74294 72.4856 8.74294 72.3144C9.17098 67.2636 6.60276 62.8976 2.75044 59.8157C2.2368 59.3877 1.55195 59.8157 1.29513 60.3294C1.0383 61.0142 0.867097 61.6991 0.78149 62.384C0.353455 62.5552 -0.0745889 62.9832 0.0110183 63.4969C1.12391 70.5166 3.69213 76.766 7.80127 82.5016C8.1437 83.0153 9.08537 82.8441 9.4278 82.3304C12.1672 77.5364 14.5642 72.6568 16.5332 67.5204C16.79 67.0067 16.6188 66.6643 16.2764 66.4931ZM14.4786 66.0651C13.965 68.4621 13.0233 70.6022 11.7392 72.5712C11.8248 72.2288 11.9104 71.8863 11.996 71.5439C12.5953 69.9174 13.2801 68.2908 14.1362 66.6643C14.2218 66.5787 14.2218 66.4931 14.2218 66.4075C14.2218 66.3219 14.3074 66.2363 14.4786 66.0651ZM6.60276 68.2052C5.57548 66.3219 4.29137 64.6097 2.75044 62.9832C2.75044 62.7264 2.83606 62.4696 2.83606 62.2127C4.6338 64.0105 5.8323 65.9795 6.60276 68.2052Z" fill="#DEDEDE"/>
<path d="M38.6416 257.439C38.8128 256.754 38.8984 255.984 38.8984 255.213C38.984 254.443 38.128 254.1 37.5287 254.357C34.1044 255.898 32.8203 259.065 32.2211 262.49C31.9642 263.346 31.7074 264.202 31.4506 265.058C31.2794 264.544 31.1082 264.031 30.937 263.603C31.0226 263.517 31.1082 263.431 31.1082 263.26C31.5362 258.209 28.968 253.843 25.1157 250.762C24.602 250.334 23.9172 250.762 23.6604 251.275C23.4035 251.96 23.2323 252.645 23.1467 253.33C22.7187 253.501 22.2906 253.929 22.3763 254.443C23.4891 261.462 26.0574 267.712 30.1665 273.447C30.5089 273.961 31.4506 273.79 31.793 273.276C34.5325 268.482 36.9295 263.603 38.8984 258.466C39.1552 257.953 38.984 257.61 38.6416 257.439ZM36.8439 257.011C36.3302 259.408 35.3885 261.548 34.1044 263.517C34.19 263.175 34.2756 262.832 34.3612 262.49C34.9605 260.863 35.6454 259.237 36.5014 257.61C36.587 257.525 36.587 257.439 36.587 257.353C36.587 257.268 36.6726 257.182 36.8439 257.011ZM28.968 259.151C27.9407 257.268 26.6566 255.556 25.1157 253.929C25.1157 253.672 25.2013 253.415 25.2013 253.159C26.999 254.956 28.1975 256.925 28.968 259.151Z" fill="#DEDEDE"/>
<path d="M44.2662 152.969C44.2662 152.284 44.1806 151.513 44.095 150.743C44.0094 149.972 43.1533 149.801 42.5541 150.229C39.4722 152.455 38.873 155.794 38.9586 159.304C38.873 160.16 38.7874 161.101 38.7018 161.957C38.4449 161.529 38.1881 161.016 37.9313 160.588C38.0169 160.502 38.0169 160.331 38.0169 160.245C37.4177 155.195 33.9934 151.428 29.6274 149.202C29.0282 148.86 28.4289 149.459 28.3433 149.972C28.2577 150.743 28.1721 151.428 28.2577 152.113C27.8297 152.369 27.5728 152.883 27.7441 153.397C30.2267 159.989 33.9934 165.639 39.2154 170.433C39.7291 170.861 40.5851 170.518 40.7563 170.005C42.4685 164.783 43.8382 159.475 44.6943 153.996C44.8655 153.397 44.6087 153.14 44.2662 152.969ZM42.3829 153.054C42.3829 155.451 41.8692 157.848 41.0132 159.989C41.0132 159.646 41.0132 159.304 41.0132 158.961C41.27 157.249 41.6124 155.451 42.1261 153.739C42.1261 153.654 42.1261 153.568 42.1261 153.482C42.2117 153.311 42.2973 153.14 42.3829 153.054ZM35.1063 156.65C33.6509 155.023 32.11 153.568 30.3123 152.284C30.3123 152.027 30.2267 151.77 30.2267 151.513C32.2812 152.969 33.9078 154.681 35.1063 156.65Z" fill="#DEDEDE"/>
<path d="M195.474 272.848C195.302 272.677 195.217 272.506 195.045 272.335C195.131 272.249 195.131 272.163 195.217 271.992C195.559 270.965 193.933 270.194 193.419 271.136C193.333 271.307 193.162 271.564 193.077 271.735C190.936 272.335 188.539 276.101 186.998 279.098C186.485 279.782 186.142 280.467 185.8 281.238C185.714 281.066 185.714 280.895 185.629 280.638C185.457 276.615 184.601 271.65 181.52 270.194C180.064 269.51 178.523 270.109 177.496 271.222C175.698 273.276 176.554 276.273 177.154 278.584C177.667 280.467 178.951 285.518 181.006 288.001C181.348 289.199 181.691 290.398 182.033 291.682C182.119 292.024 182.461 292.367 182.889 292.367C183.146 292.367 183.489 292.281 183.66 292.281C183.917 292.795 184.687 293.137 185.201 292.623C188.283 289.199 190.936 285.432 193.077 281.323C194.275 279.44 197.186 275.16 195.474 272.848ZM179.379 276.187C179.551 276.016 179.722 275.844 179.807 275.588L179.893 275.673C179.893 276.101 179.893 276.444 179.893 276.872C179.722 276.615 179.551 276.529 179.294 276.444C179.465 276.444 179.465 276.273 179.379 276.187Z" fill="#DEDEDE"/>
<path d="M138.339 140.331C138.168 140.159 138.082 139.988 137.911 139.817C137.996 139.731 137.996 139.646 138.082 139.475C138.424 138.447 136.798 137.677 136.284 138.619C136.199 138.79 136.027 139.047 135.942 139.218C133.802 139.817 131.405 143.584 129.864 146.58C129.35 147.265 129.008 147.95 128.665 148.72C128.58 148.549 128.58 148.378 128.494 148.121C128.323 144.097 127.467 139.132 124.385 137.677C122.929 136.992 121.389 137.591 120.361 138.704C118.564 140.759 119.42 143.755 120.019 146.066C120.532 147.95 121.817 153.001 123.871 155.483C124.214 156.682 124.556 157.88 124.898 159.164C124.984 159.507 125.326 159.849 125.754 159.849C126.011 159.849 126.354 159.763 126.525 159.763C126.782 160.277 127.552 160.62 128.066 160.106C131.148 156.682 133.802 152.915 135.942 148.806C137.14 146.922 139.965 142.642 138.339 140.331ZM122.245 143.669C122.416 143.498 122.587 143.327 122.673 143.07L122.758 143.156C122.758 143.584 122.758 143.926 122.758 144.354C122.587 144.097 122.416 144.012 122.159 143.926C122.245 143.926 122.245 143.841 122.245 143.669Z" fill="#DEDEDE"/>
<path d="M110.085 304.287C109.999 303.516 109.057 303.43 108.544 303.859C108.03 303.259 107.517 302.66 107.003 301.975C107.088 301.975 107.088 301.89 107.174 301.89C107.431 302.146 107.602 302.403 107.859 302.66C108.373 303.259 109.571 302.831 109.571 302.061C109.485 296.154 109.143 290.247 108.629 284.34C108.458 282.628 108.886 279.032 106.318 279.032C105.976 279.032 105.633 279.289 105.548 279.632C104.606 283.313 104.178 287.08 104.349 290.761C103.151 287.679 100.839 285.795 97.5861 285.111C96.9868 285.025 96.4732 285.282 96.4732 285.881C96.4732 286.052 96.4732 286.138 96.4732 286.223C96.302 286.309 96.1308 286.48 96.0451 286.737C95.3603 289.905 96.5588 292.216 98.5278 294.699C101.524 298.636 104.863 302.318 108.03 306.084C108.373 306.512 109.057 306.512 109.4 306.17C110.17 305.571 110.17 305.399 110.085 304.287ZM107.174 295.041C107.088 295.041 107.088 295.041 107.174 295.041C107.26 294.271 107.26 293.5 107.345 292.815C107.345 293.757 107.431 294.613 107.431 295.555C107.345 295.383 107.26 295.212 107.174 295.041ZM106.917 284.683C106.917 284.426 106.832 284.169 106.832 283.912C106.746 283.655 106.66 283.398 106.404 283.313C106.489 282.371 106.66 281.601 106.746 281.601C106.832 281.601 106.917 283.741 106.917 284.683ZM104.349 291.531C104.349 292.045 104.435 292.558 104.435 293.072C104.178 292.73 103.921 292.387 103.664 292.045C104.007 291.959 104.263 291.788 104.349 291.531ZM98.7846 292.13C98.8702 292.216 98.9558 292.302 98.9558 292.387C101.01 295.041 103.322 297.609 105.548 300.177C105.548 300.263 105.548 300.349 105.548 300.434C104.948 299.749 104.349 299.065 103.835 298.38C102.38 296.582 100.154 294.442 98.7846 292.13Z" fill="#DEDEDE"/>
</svg>
