<svg width="32" height="39" viewBox="0 0 32 39" fill="none" xmlns="http://www.w3.org/2000/svg">
<path d="M31.448 3.77416C29.517 0.698892 25.1032 2.79567 22.6204 4.19352C19.1721 6.1505 16.4135 9.08599 14.7583 12.7204C14.2066 8.24728 12.2756 3.77416 8.68938 1.25803C5.37903 -1.2581 2.34455 0.139753 0.827307 3.91395C-1.65545 9.78491 1.65489 16.6344 3.72386 22.086C5.51696 26.9785 7.0342 36.7634 12.1377 39C12.5514 39.1397 12.9652 39 13.2411 38.7204C19.0342 34.2473 23.1721 25.7204 26.4825 19.2903C28.2756 15.9354 33.9308 7.54835 31.448 3.77416ZM27.8618 10.7634C24.8273 18.0322 20.9652 25.0215 16.4135 31.4516C15.3101 32.9892 14.7583 34.5268 12.8273 34.8064C10.4825 35.2258 10.7583 33.9677 9.93075 31.7311C8.55144 28.2365 7.17213 24.6021 5.79282 21.1075C4.96524 18.8709 3.72386 16.4946 3.31007 14.1182C2.62041 11.6021 1.65489 5.45158 3.31007 3.49459C8.27558 -2.23659 12.8273 11.4623 13.6549 15.2365C13.379 15.9354 13.2411 16.6344 13.1032 17.3333C12.8273 18.5914 14.7583 19.2903 15.1721 17.8924C16.2756 13.6989 18.2066 10.3441 21.517 7.68814C23.5859 6.01072 24.1377 5.45158 26.8963 6.56986C30.0687 7.82792 28.9652 7.96771 27.8618 10.7634Z" fill="#101010"/>
</svg>
