<svg width="49" height="45" viewBox="0 0 49 45" fill="none" xmlns="http://www.w3.org/2000/svg">
<g opacity="0.85">
<path d="M9.01656 21.3934C11.4522 24.3856 14.4192 21.2148 16.3234 19.0711C19.2904 15.7663 22.8774 11.8363 22.8774 7.10234C22.8774 3.97616 21.3275 -0.0878724 17.6519 0.00144703C14.2863 0.0907664 11.8064 4.11014 10.1679 7.41496C9.28227 5.44993 8.0866 3.57422 6.40382 2.36841C4.49962 1.02862 1.93116 0.939301 0.956915 3.44024C-0.0616117 6.03051 0.956915 9.33533 2.01973 11.747C3.52537 15.1411 5.87242 18.044 8.21946 20.8575C8.39659 21.1255 8.70658 21.3041 9.01656 21.3934ZM3.83536 4.06548C6.31525 2.18977 8.48516 8.84407 8.928 10.3178C9.10513 10.8984 10.8322 12.5955 11.3636 11.5237C12.515 9.11203 13.7992 6.74506 15.482 4.64606C16.412 3.4849 17.6076 1.83249 19.1576 2.59171C20.5303 3.30627 20.4418 5.98585 20.2646 7.32564C19.9104 10.1392 18.0947 12.4168 16.412 14.5605C15.9691 15.0964 10.8765 20.7682 10.7879 20.6342C10.5665 20.3216 10.2565 20.143 9.90224 20.009C7.37806 17.0168 4.8096 13.8013 3.70251 9.96056C3.25967 8.57611 2.374 5.18197 3.83536 4.06548Z" fill="#101010"/>
<path d="M46.3978 6.64647C44.9808 8.07559 43.7851 9.63867 42.8551 11.3804C42.5009 10.0853 42.2352 8.70082 41.3052 7.62899C40.9509 7.18239 39.4453 6.19988 39.091 6.95909C38.6925 7.85229 38.7368 8.87946 39.0025 9.81731C39.2682 10.7552 39.7553 11.6037 40.2424 12.4076C40.6852 13.1668 41.1281 13.926 41.5709 14.6852C41.8366 15.1765 42.1466 15.6231 42.5452 16.025C42.9437 16.3823 43.4751 16.6503 44.0065 16.5609C45.0693 16.3823 45.955 14.7299 46.5307 13.926C47.8592 12.095 49.6748 9.90663 48.7449 7.53967C48.4349 6.78045 47.1064 5.93192 46.3978 6.64647Z" fill="#101010"/>
<path d="M29.9801 32.9269C29.4044 31.5871 28.7844 30.292 27.2788 29.5327C25.6403 28.6842 23.7361 29.0861 23.0718 30.9618C22.319 33.0162 23.6918 35.3385 24.666 37.0802C26.0388 39.4919 27.8102 41.5909 29.8472 43.4219C29.9801 43.5112 30.0686 43.6005 30.2015 43.6899C30.7329 44.1365 31.3971 44.4044 31.8843 44.1365C35.9141 41.6802 39.8111 36.0084 37.9954 31.0512C37.4197 29.4881 35.9584 27.657 34.0985 27.925C32.1943 28.1036 30.91 30.7832 29.9801 32.9269ZM35.8255 31.8104C35.9584 32.6589 35.7812 33.5968 35.6041 34.4453C34.8956 37.4375 33.0799 39.9384 30.6 41.6802C28.7401 39.8491 27.1016 37.7055 26.0388 35.2492C25.6845 34.4453 25.3746 33.6861 25.5517 32.7482C25.8174 31.5424 26.5259 30.9618 27.5002 32.123C28.2973 33.1502 28.4744 34.7133 29.3158 35.8298C29.6258 36.2317 31.0429 37.3035 31.53 36.455C32.46 34.7133 33.2571 32.7929 34.3642 31.1851C35.2941 29.7114 35.6041 30.292 35.8255 31.8104Z" fill="#101010"/>
</g>
</svg>
