<svg width="17" height="16" viewBox="0 0 17 16" fill="none" xmlns="http://www.w3.org/2000/svg">
<path fill-rule="evenodd" clip-rule="evenodd" d="M15.6662 2.75734C15.461 2.23184 15.1875 1.78671 14.7399 1.34158C14.2923 0.896445 13.8447 0.62442 13.3162 0.420402C12.8065 0.222566 12.2159 0.0865533 11.3642 0.049459L11.3497 0.0488338C10.5031 0.0122257 10.2204 0 8.04444 0C5.85616 0 5.58262 0.00618238 4.72471 0.049459C3.8668 0.0865533 3.28243 0.222566 2.77266 0.420402C2.24424 0.62442 1.79663 0.896445 1.34903 1.34158C0.901425 1.78671 0.627889 2.23184 0.422737 2.75734C0.223802 3.2643 0.0870342 3.85162 0.0497338 4.69861L0.0491052 4.71299C0.0122936 5.55491 0 5.83607 0 8C0 10.1762 0.00621673 10.4482 0.0497338 11.3014C0.0870342 12.1546 0.223802 12.7357 0.422737 13.2427C0.627889 13.7682 0.901425 14.2133 1.34903 14.6584C1.79663 15.1036 2.24424 15.3756 2.77266 15.5796C3.28243 15.7774 3.87302 15.9134 4.72471 15.9505L4.73919 15.9512C5.58577 15.9878 5.86851 16 8.04444 16C10.2327 16 10.5063 15.9938 11.3642 15.9505C12.2221 15.9134 12.8065 15.7774 13.3162 15.5796C13.8447 15.3756 14.2923 15.1036 14.7399 14.6584C15.1875 14.2133 15.461 13.7682 15.6662 13.2427C15.8651 12.7357 16.0019 12.1484 16.0392 11.3014L16.0398 11.287C16.0766 10.4451 16.0889 10.1639 16.0889 8C16.0889 5.8238 16.0827 5.55178 16.0392 4.69861C16.0019 3.84544 15.8651 3.2643 15.6662 2.75734ZM14.0331 10.9548C13.999 11.6667 13.8797 12.0565 13.7774 12.3107C13.6468 12.6497 13.482 12.8983 13.2263 13.1525C12.9707 13.4068 12.7264 13.565 12.3799 13.7006C12.1185 13.8023 11.7322 13.9209 11.0164 13.9548L10.9794 13.9564C10.2304 13.9891 9.97934 14 8.04518 14C6.07952 14 5.84659 13.9944 5.07396 13.9548C4.35814 13.9209 3.96615 13.8023 3.7105 13.7006C3.36963 13.5706 3.11966 13.4068 2.86401 13.1525C2.60836 12.8983 2.44929 12.6554 2.31295 12.3107C2.21069 12.0508 2.09138 11.6667 2.0573 10.9548L2.05595 10.9242C2.02291 10.1743 2.01185 9.92325 2.01185 8C2.01185 6.05085 2.01753 5.81356 2.0573 5.0452C2.09138 4.33333 2.21069 3.9435 2.31295 3.68927C2.44361 3.35028 2.60836 3.1017 2.86401 2.84746C3.11966 2.59322 3.36395 2.43503 3.7105 2.29944C3.97183 2.19774 4.35814 2.0791 5.07396 2.0452L5.1047 2.04386C5.85877 2.011 6.11124 2 8.04518 2C10.0052 2 10.2438 2.00565 11.0164 2.0452C11.7322 2.0791 12.1242 2.19774 12.3799 2.29944C12.7207 2.42938 12.9707 2.59322 13.2263 2.84746C13.482 3.1017 13.6411 3.34463 13.7774 3.68927C13.8797 3.94915 13.999 4.33333 14.0331 5.0452L14.0344 5.07577V5.07579C14.0675 5.82567 14.0785 6.07677 14.0785 8C14.0785 9.93056 14.0674 10.1818 14.034 10.933L14.0331 10.9548ZM13.0741 4C13.0741 4.55228 12.6239 5 12.0686 5C11.5132 5 11.063 4.55228 11.063 4C11.063 3.44772 11.5132 3 12.0686 3C12.6239 3 13.0741 3.44772 13.0741 4ZM8.04523 4C5.82544 4 4.023 5.79248 4.023 8C4.023 10.2075 5.82544 12 8.04523 12C10.265 12 12.0674 10.2075 12.0674 8C12.0674 5.79248 10.265 4 8.04523 4ZM6.03416 8C6.03416 9.10648 6.93729 10 8.04527 10C9.15324 10 10.0564 9.10185 10.0564 8C10.0564 6.89352 9.1579 6 8.04527 6C6.93264 6 6.03416 6.89815 6.03416 8Z" fill="#101010"/>
</svg>
