<svg width="19" height="20" viewBox="0 0 19 20" fill="none" xmlns="http://www.w3.org/2000/svg">
<path fill-rule="evenodd" clip-rule="evenodd" d="M18.5194 4.04571C18.2864 3.44887 17.9757 2.94331 17.4673 2.43776C16.959 1.9322 16.4506 1.62325 15.8505 1.39153C15.2715 1.16684 14.6007 1.01237 13.6334 0.970236L13.617 0.969525C12.6555 0.927948 12.3344 0.914062 9.86303 0.914062C7.37769 0.914062 7.06702 0.921084 6.09265 0.970236C5.11828 1.01237 4.45458 1.16684 3.87561 1.39153C3.27545 1.62325 2.76709 1.9322 2.25872 2.43776C1.75036 2.94331 1.43969 3.44887 1.20669 4.04571C0.980746 4.62148 0.825411 5.28854 0.783048 6.2505L0.782334 6.26683C0.740525 7.22304 0.726562 7.54238 0.726562 10.0001C0.726562 12.4717 0.733623 12.7806 0.783048 13.7496C0.825411 14.7186 0.980746 15.3786 1.20669 15.9544C1.43969 16.5512 1.75036 17.0568 2.25872 17.5624C2.76709 18.0679 3.27545 18.3769 3.87561 18.6086C4.45458 18.8333 5.12534 18.9877 6.09265 19.0299L6.10909 19.0306C7.07059 19.0722 7.39172 19.086 9.86303 19.086C12.3484 19.086 12.659 19.079 13.6334 19.0299C14.6078 18.9877 15.2715 18.8333 15.8505 18.6086C16.4506 18.3769 16.959 18.0679 17.4673 17.5624C17.9757 17.0568 18.2864 16.5512 18.5194 15.9544C18.7453 15.3786 18.9007 14.7116 18.943 13.7496L18.9437 13.7333C18.9855 12.7771 18.9995 12.4577 18.9995 10.0001C18.9995 7.52844 18.9924 7.21949 18.943 6.2505C18.9007 5.28152 18.7453 4.62148 18.5194 4.04571ZM16.6646 13.3559C16.6259 14.1644 16.4904 14.6072 16.3743 14.8959C16.2258 15.2809 16.0387 15.5632 15.7484 15.852C15.458 16.1407 15.1806 16.3204 14.787 16.4744C14.4902 16.5899 14.0514 16.7247 13.2384 16.7632L13.1964 16.765C12.3457 16.8021 12.0606 16.8145 9.86387 16.8145C7.63137 16.8145 7.36683 16.8081 6.48931 16.7632C5.67632 16.7247 5.23111 16.5899 4.94076 16.4744C4.55362 16.3268 4.26972 16.1407 3.97937 15.852C3.68901 15.5632 3.50835 15.2873 3.35349 14.8959C3.23735 14.6007 3.10185 14.1644 3.06314 13.3559L3.06161 13.3212C3.02408 12.4695 3.01152 12.1843 3.01152 10C3.01152 7.78625 3.01797 7.51675 3.06314 6.64409C3.10185 5.83559 3.23735 5.39284 3.35349 5.10409C3.5019 4.71909 3.68901 4.43676 3.97937 4.14801C4.26972 3.85926 4.54717 3.67959 4.94076 3.52559C5.23757 3.41009 5.67632 3.27534 6.48931 3.23684L6.52423 3.23532C7.38066 3.198 7.6674 3.18551 9.86387 3.18551C12.0899 3.18551 12.3609 3.19192 13.2384 3.23684C14.0514 3.27534 14.4966 3.41009 14.787 3.52559C15.1741 3.67317 15.458 3.85926 15.7484 4.14801C16.0387 4.43676 16.2194 4.71267 16.3743 5.10409C16.4904 5.39925 16.6259 5.83559 16.6646 6.64409L16.6661 6.67879C16.7037 7.5305 16.7162 7.81565 16.7162 10C16.7162 12.1926 16.7036 12.4779 16.6657 13.3311L16.6646 13.3559ZM15.5755 5.457C15.5755 6.08426 15.0642 6.59275 14.4334 6.59275C13.8027 6.59275 13.2914 6.08426 13.2914 5.457C13.2914 4.82975 13.8027 4.32126 14.4334 4.32126C15.0642 4.32126 15.5755 4.82975 15.5755 5.457ZM9.86394 5.457C7.34282 5.457 5.2957 7.49281 5.2957 10C5.2957 12.5072 7.34282 14.543 9.86394 14.543C12.3851 14.543 14.4322 12.5072 14.4322 10C14.4322 7.49281 12.3851 5.457 9.86394 5.457ZM7.57988 10.0001C7.57988 11.2567 8.60561 12.2716 9.86399 12.2716C11.1224 12.2716 12.1481 11.2515 12.1481 10.0001C12.1481 8.74337 11.1277 7.72856 9.86399 7.72856C8.60033 7.72856 7.57988 8.74863 7.57988 10.0001Z" fill="white"/>
</svg>
