<svg width="26" height="28" viewBox="0 0 26 28" fill="none" xmlns="http://www.w3.org/2000/svg">
<path d="M0.987417 16.5067H2.0819V26.7854C2.0819 27.3564 2.49828 27.7728 3.06932 27.7728H22.9307C23.5017 27.7728 23.9181 27.3564 23.9181 26.7854V16.5067H25.0126C25.5836 16.5067 26 16.1082 26 15.5193V8.33971C26 7.76867 25.5836 7.3166 25.0126 7.3166H20.1231C22.4132 6.10315 23.5731 4.99677 23.7456 3.71193C23.8467 2.93271 23.6088 1.80253 21.9254 0.785372C20.1409 -0.29127 18.6658 -0.0652342 17.7319 0.315457C16.2091 0.940028 14.8529 2.46279 13.7465 4.85401C13.574 5.21685 13.4372 5.56185 13.2944 5.89496C13.1576 5.5678 13.0149 5.21685 12.8424 4.85401C11.7181 2.46279 10.3798 0.934079 8.85701 0.315457C7.92313 -0.0652342 6.44795 -0.29127 4.66346 0.785372C2.96225 1.80848 2.73622 2.95055 2.84329 3.72978C2.99794 4.99677 4.15786 6.10315 6.44795 7.3166H0.987417C0.416381 7.3166 0 7.76867 0 8.33971V15.5134C0 16.1082 0.416381 16.5067 0.987417 16.5067ZM4.15786 16.5067H11.9561V25.6909H4.15786V16.5067ZM21.8362 25.6909H14.038V16.5067H21.8362V25.6909ZM23.9181 14.4248H22.9307H14.038V9.3985H14.609H23.9181V14.4248ZM15.6321 5.72246C16.5006 3.84874 17.5058 2.63529 18.5289 2.21891C18.7907 2.11779 19.0464 2.06426 19.326 2.06426C19.8138 2.06426 20.3134 2.21891 20.8488 2.55202C21.3841 2.87917 21.7172 3.23012 21.6994 3.43831C21.5804 4.37219 18.5468 6.03772 15.0432 7.1322C15.1979 6.70987 15.3942 6.22806 15.6321 5.72246ZM4.8895 3.43831C4.85381 3.23012 5.18691 2.88512 5.74011 2.55202C6.27545 2.22486 6.78106 2.06426 7.26287 2.06426C7.54244 2.06426 7.79822 2.11779 8.05994 2.21891C9.67193 2.87917 10.8854 5.32392 11.5635 7.12626C8.0421 6.03772 5.00846 4.37219 4.8895 3.43831ZM2.0819 9.3985H11.962V14.4248H3.06932H2.0819V9.3985Z" fill="black"/>
</svg>
