<svg width="36" height="39" viewBox="0 0 36 39" fill="none" xmlns="http://www.w3.org/2000/svg">
<path d="M7.00314 3.19141C4.89497 3.19141 3.18457 4.90684 3.18457 7.0212C3.18457 9.13557 4.89497 10.851 7.00314 10.851C9.1113 10.851 10.8217 9.13557 10.8217 7.0212C10.8217 4.90684 9.1113 3.19141 7.00314 3.19141ZM7.00314 9.5744C5.59504 9.5744 4.45743 8.43344 4.45743 7.0212C4.45743 5.60897 5.59504 4.46801 7.00314 4.46801C8.41123 4.46801 9.54885 5.60897 9.54885 7.0212C9.54885 8.43344 8.41123 9.5744 7.00314 9.5744Z" fill="black"/>
<path d="M13.98 25.3485L10.1614 12.5825C10.0819 12.3112 9.83527 12.1277 9.54887 12.1277H4.45745C4.17902 12.1277 3.92445 12.3112 3.84489 12.5825L0.0263272 25.3485C-0.0293602 25.54 0.00246119 25.7554 0.129747 25.915C0.249077 26.0745 0.440005 26.1703 0.638889 26.1703H3.1846V34.4682C3.1846 34.8192 3.47099 35.1065 3.82103 35.1065H10.1853C10.5353 35.1065 10.8217 34.8192 10.8217 34.4682V26.1703H13.3674C13.7175 26.1703 14.0039 25.883 14.0039 25.532C14.0039 25.4681 13.9959 25.4043 13.98 25.3485ZM10.1853 24.8937C9.83527 24.8937 9.54887 25.1809 9.54887 25.532V33.8299H7.63959V24.8937H6.36674V33.8299H4.45745V25.532C4.45745 25.1809 4.17106 24.8937 3.82103 24.8937H1.49807L4.93477 13.4043H9.07155L12.5083 24.8937H10.1853Z" fill="black"/>
<path d="M28.6418 3.19141C26.5336 3.19141 24.8232 4.90684 24.8232 7.0212C24.8232 9.13557 26.5336 10.851 28.6418 10.851C30.75 10.851 32.4604 9.13557 32.4604 7.0212C32.4604 4.90684 30.75 3.19141 28.6418 3.19141ZM28.6418 9.5744C27.2337 9.5744 26.0961 8.43344 26.0961 7.0212C26.0961 5.60897 27.2337 4.46801 28.6418 4.46801C30.0499 4.46801 31.1875 5.60897 31.1875 7.0212C31.1875 8.43344 30.0499 9.5744 28.6418 9.5744Z" fill="black"/>
<path d="M30.5509 12.1277H26.7323C24.2741 12.1277 22.2773 14.1304 22.2773 16.5958V25.532C22.2773 25.883 22.5637 26.1703 22.9138 26.1703H24.8231V34.4682C24.8231 34.8192 25.1094 35.1065 25.4595 35.1065H31.8238C32.1738 35.1065 32.4602 34.8192 32.4602 34.4682V26.1703H34.3695C34.7195 26.1703 35.0059 25.883 35.0059 25.532V16.5958C35.0059 14.1304 33.0091 12.1277 30.5509 12.1277ZM33.733 24.8937H32.4602V17.2341H31.1873V33.8299H29.278V24.8937H28.0052V33.8299H26.0959V17.2341H24.8231V24.8937H23.5502V16.5958C23.5502 14.8325 24.9742 13.4043 26.7323 13.4043H30.5509C32.309 13.4043 33.733 14.8325 33.733 16.5958V24.8937Z" fill="black"/>
<path d="M18.4589 0H17.186V38.298H18.4589V0Z" fill="black"/>
</svg>
