<svg width="36" height="36" viewBox="0 0 36 36" fill="none" xmlns="http://www.w3.org/2000/svg">
<path d="M23.1599 0C16.4848 0 11.0552 5.45732 11.0552 12.1664C11.0552 13.6574 11.3211 15.1061 11.8388 16.4845L0.258887 28.1235C0.0909603 28.2922 0 28.5173 0 28.7494V35.1139C0 35.6062 0.391829 36 0.881616 36H6.10134C6.33224 36 6.55614 35.9086 6.72407 35.7398L8.4803 33.9746C8.64823 33.8058 8.73919 33.5808 8.73919 33.3487V31.1756H10.8942C11.384 31.1756 11.7759 30.7818 11.7759 30.2895V29.4175H12.6435C13.1333 29.4175 13.5251 29.0236 13.5251 28.5314V26.6255H15.4213C15.6522 26.6255 15.8831 26.5341 16.044 26.3653L18.8498 23.5452C20.2212 24.0656 21.6626 24.3329 23.1459 24.3329C29.821 24.3329 35.2506 18.8756 35.2506 12.1664C35.2646 5.45732 29.835 0 23.1599 0ZM23.1599 22.5677C21.7185 22.5677 20.3191 22.2723 19.0107 21.6956C18.6749 21.548 18.29 21.6253 18.0381 21.8715L18.0311 21.8785L15.0644 24.8603H12.6505C12.1607 24.8603 11.7689 25.2542 11.7689 25.7464V27.6523H10.9012C10.4115 27.6523 10.0196 28.0461 10.0196 28.5384V29.4104H7.86457C7.37478 29.4104 6.98295 29.8043 6.98295 30.2965V32.99L5.7375 34.2348H1.76323V32.983L12.5455 22.1457C12.8534 21.8363 12.8534 21.3299 12.5455 21.0135C12.2377 20.697 11.7339 20.704 11.419 21.0135L1.76323 30.7255V29.1221L13.4971 17.3284L13.5041 17.3214C13.749 17.0682 13.833 16.6884 13.679 16.3438C13.1053 15.0287 12.8114 13.6222 12.8114 12.1735C12.8114 6.44188 17.4504 1.77925 23.1529 1.77925C28.8554 1.77925 33.4944 6.44188 33.4944 12.1735C33.5014 17.9051 28.8624 22.5677 23.1599 22.5677Z" fill="black"/>
<path d="M26.8475 5.14087C25.0283 5.14087 23.5449 6.63179 23.5449 8.46027C23.5449 10.2888 25.0283 11.7797 26.8475 11.7797C28.6667 11.7797 30.15 10.2888 30.15 8.46027C30.15 6.63179 28.6667 5.14087 26.8475 5.14087ZM26.8475 10.0145C26.0009 10.0145 25.3082 9.31825 25.3082 8.4673C25.3082 7.61635 26.0009 6.92012 26.8475 6.92012C27.6941 6.92012 28.3868 7.61635 28.3868 8.4673C28.3868 9.31825 27.6941 10.0145 26.8475 10.0145Z" fill="black"/>
</svg>
