<svg width="35" height="44" viewBox="0 0 35 44" fill="none" xmlns="http://www.w3.org/2000/svg">
<path d="M24.8201 31.0349C24.8563 31.0349 24.9015 31.0439 24.9467 31.062C27.117 31.7673 29.2692 32.4003 31.6655 32.4003C31.9097 32.4003 32.1629 32.3913 32.398 32.3823H32.4251C33.4108 32.3009 34.0981 31.7402 34.3603 30.8179C34.6587 29.7689 35.0566 25.356 34.9933 24.289V24.2618C34.9209 23.4299 34.3151 22.8511 33.5193 22.8511C33.2571 22.8511 32.9948 22.9144 32.7507 23.041C30.2549 24.289 27.5692 24.6054 25.0372 24.8225C24.8744 24.8406 24.7207 24.8406 24.5669 24.8406C23.4999 24.8406 22.9935 24.4698 22.9935 24.2257C22.9935 24.0719 23.2015 23.8639 23.6717 23.8549C27.5059 23.7826 30.4267 23.1948 33.1486 21.9469C34.1071 21.5219 34.4779 20.6718 34.1614 19.6048C33.6007 17.7329 32.7507 15.8972 31.6294 14.1339C31.2948 13.6094 30.7793 13.311 30.2187 13.311C29.7937 13.311 29.3777 13.4738 29.025 13.7903C27.3702 15.2642 25.3718 16.268 23.3914 16.6026C23.3371 16.6116 23.2919 16.6116 23.2467 16.6116C23.0206 16.6116 22.885 16.5121 22.8579 16.4127C22.8126 16.2861 22.9754 16.1504 23.0387 16.1052C23.319 15.8882 23.943 15.5717 24.5941 15.2371C25.7244 14.6584 27.117 13.9349 28.3468 12.9945C28.7538 12.687 29.016 12.2439 29.0703 11.7556C29.1245 11.2583 28.9708 10.7338 28.6272 10.3359L28.6181 10.3269C27.6144 9.14227 27.325 8.82577 26.267 7.84915L26.2489 7.8401C25.9053 7.53265 25.5074 7.37892 25.0824 7.37892C24.576 7.37892 24.0967 7.61403 23.7079 8.04809C23.1291 8.70821 22.5142 9.24174 21.8631 9.63962C21.4743 9.88378 21.1669 9.92899 20.986 9.92899C20.7328 9.92899 20.6243 9.83856 20.6062 9.80239C20.5881 9.76622 20.6333 9.58536 20.8865 9.35025C21.203 9.0428 21.4924 8.83481 21.7908 8.61779C22.1796 8.33746 22.5866 8.03905 23.0206 7.55978C23.3733 7.17094 23.5451 6.69167 23.5089 6.19432C23.4728 5.706 23.2377 5.24482 22.8579 4.91928L22.8488 4.91024C22.4871 4.62087 22.1344 4.3315 21.7908 4.06022C20.2445 2.82135 18.9062 1.74526 18.2189 0.895237L17.5136 0L16.8082 0.886194C16.13 1.73622 14.7917 2.81231 13.2363 4.05117C12.8927 4.32246 12.54 4.60278 12.1783 4.9012L12.1693 4.91024C11.7895 5.22674 11.5453 5.69696 11.5182 6.18527C11.482 6.68263 11.6538 7.17094 12.0065 7.55978C12.4406 8.03 12.8384 8.32841 13.2273 8.60874C13.5257 8.82577 13.8151 9.03375 14.1316 9.34121C14.3848 9.58536 14.4209 9.75718 14.4119 9.79335C14.4028 9.82952 14.2853 9.91995 14.0321 9.91995C13.8512 9.91995 13.5438 9.86569 13.1549 9.63058C12.5039 9.2327 11.8799 8.69917 11.3012 8.03C10.9214 7.60499 10.4331 7.36084 9.92666 7.36084C9.50165 7.36084 9.10376 7.52361 8.76014 7.82202L8.74205 7.83106C7.69309 8.81673 7.40372 9.13322 6.39092 10.3088L6.38188 10.3178C6.0473 10.7248 5.88453 11.2402 5.93878 11.7375C5.99304 12.2259 6.25528 12.669 6.65317 12.9764C7.88299 13.9259 9.28462 14.6403 10.4059 15.219C11.057 15.5536 11.6719 15.8701 11.9613 16.0871C12.0336 16.1414 12.1874 16.277 12.1421 16.3946C12.106 16.4941 11.9703 16.5935 11.7533 16.5935C11.7081 16.5935 11.6538 16.5935 11.6086 16.5845C9.62825 16.2499 7.62979 15.2462 5.97496 13.7631C5.62229 13.4557 5.20632 13.2839 4.78131 13.2839C4.22065 13.2839 3.70521 13.5823 3.36159 14.1068C2.24932 15.8611 1.3993 17.7058 0.829604 19.5777C0.513106 20.6357 0.883861 21.4947 1.85144 21.9197C4.57332 23.1676 7.49414 23.7554 11.3283 23.8278C11.7533 23.8368 12.0065 24.0267 12.0065 24.1985C12.0065 24.4427 11.5001 24.8134 10.4331 24.8134C10.2884 24.8134 10.1256 24.8044 9.96283 24.7953C7.43085 24.5783 4.74514 24.2618 2.24932 23.023C2.00517 22.8964 1.73388 22.8331 1.48069 22.8331C0.68492 22.8331 0.0790521 23.4118 0.00670973 24.2437V24.2709C-0.0565898 25.3379 0.341293 29.7508 0.639706 30.7907C0.901947 31.7221 1.5892 32.2737 2.57486 32.3642H2.60199C2.84615 32.3732 3.0903 32.3823 3.33446 32.3823C5.7308 32.3823 7.87394 31.7493 10.0533 31.0439C10.0985 31.0258 10.1437 31.0168 10.1799 31.0168C10.3245 31.0168 10.3607 31.1434 10.3607 31.1705C10.3969 31.3514 10.1708 31.5774 9.79102 31.7221C8.3713 32.3009 6.1739 32.9067 4.36534 32.9067C4.23874 32.9067 4.12118 32.9067 4.00363 32.8977C3.9765 32.8977 3.94937 32.8977 3.92224 32.8977C3.35254 32.8977 2.87328 33.178 2.63816 33.6573C2.38497 34.1546 2.46635 34.7696 2.82806 35.2579L2.83711 35.276C4.73609 37.6632 7.60266 39.0378 10.7134 39.0378C11.9522 39.0378 13.1459 38.8207 14.1496 38.4048C15.3704 37.8984 16.121 37.1116 16.6002 36.2707V43.0528H18.4088V36.2707C18.8881 37.1207 19.6386 37.8984 20.8594 38.4048C21.8631 38.8207 23.0568 39.0378 24.2957 39.0378C27.3973 39.0378 30.2729 37.6632 32.1719 35.276L32.181 35.2579C32.5517 34.7696 32.6241 34.1546 32.3709 33.6573C32.1358 33.178 31.6565 32.8977 31.0868 32.8977C31.0597 32.8977 31.0325 32.8977 31.0054 32.8977C30.8879 32.9067 30.7703 32.9067 30.6437 32.9067C28.8351 32.9067 26.6377 32.3009 25.1819 31.7402C24.8111 31.5955 24.576 31.3785 24.6122 31.1886C24.6483 31.1615 24.6755 31.0349 24.8201 31.0349ZM24.5489 33.4222C25.2904 33.7115 27.8043 34.6158 30.282 34.7063C28.2293 36.8856 25.6973 37.2292 24.3047 37.2292C23.31 37.2292 22.3424 37.0483 21.5647 36.7318C19.7743 35.9903 19.5392 34.3988 19.3221 32.9881C19.2407 32.4275 19.1594 31.9482 18.9966 31.5322C18.6168 30.6099 17.9114 30.4742 17.5226 30.4742C17.1338 30.4742 16.4284 30.6099 16.0486 31.5322C15.8768 31.9482 15.8045 32.4275 15.7231 32.9881C15.5061 34.3988 15.2619 35.9903 13.4805 36.7318C12.7028 37.0574 11.7262 37.2292 10.7405 37.2292C9.34792 37.2292 6.82498 36.8856 4.76322 34.7063C7.2319 34.6158 9.75484 33.7115 10.4964 33.4222C11.9884 32.8434 12.3411 31.6769 12.1874 30.854C12.0065 29.9136 11.1836 29.2263 10.2251 29.2263C9.999 29.2263 9.76389 29.2625 9.53782 29.3348C7.51223 29.995 5.51377 30.5827 3.37967 30.5827C3.17169 30.5827 2.9637 30.5737 2.75572 30.5647C2.49348 30.5375 2.46635 30.4833 2.42114 30.3024C2.21315 29.5699 1.88761 26.197 1.85144 24.8225C4.51907 26.0613 7.25903 26.3869 9.85431 26.6039C10.0713 26.622 10.2793 26.631 10.4783 26.631C11.473 26.631 12.2778 26.414 12.8837 25.98C13.4986 25.5459 13.8512 24.9039 13.8603 24.2166C13.8693 23.1767 13.0193 22.0463 11.4097 22.0192C7.82873 21.9469 5.12493 21.4133 2.64721 20.2739L2.63816 20.2649C2.62008 20.2559 2.60199 20.2468 2.58391 20.2378C2.58391 20.2016 2.59295 20.1564 2.62008 20.0931C3.12647 18.4111 3.88607 16.7563 4.88078 15.1648C6.77072 16.8377 9.06759 17.968 11.3554 18.3569C11.5091 18.384 11.6629 18.393 11.8076 18.393C12.7751 18.393 13.6252 17.8234 13.9145 16.9733C14.2039 16.1323 13.8964 15.2462 13.1188 14.6493C12.7028 14.3328 12.0788 14.0073 11.2921 13.6004C10.2341 13.0578 8.91386 12.3796 7.81064 11.5296C7.8016 11.5205 7.8016 11.5205 7.79256 11.5115C7.79256 11.5024 7.8016 11.4844 7.81969 11.4572C8.76014 10.354 9.02238 10.0646 9.97187 9.17844L9.98091 9.18748C10.6772 9.98325 11.4368 10.6343 12.2416 11.1317C12.8384 11.4934 13.4714 11.6923 14.0683 11.6923C15.0268 11.6923 15.8135 11.2131 16.121 10.4354C16.4375 9.63962 16.1752 8.7263 15.4156 8.00288C15.0087 7.61403 14.647 7.35179 14.3305 7.11668C13.9869 6.86348 13.6885 6.64646 13.381 6.31187C13.3629 6.29379 13.3539 6.28474 13.3539 6.28474C13.3539 6.28474 13.3539 6.2757 13.3629 6.2757C13.7156 5.98633 14.0683 5.706 14.4028 5.44376C15.6779 4.42193 16.7449 3.56286 17.5407 2.77614C18.3365 3.56286 19.4125 4.43097 20.6785 5.44376C21.0131 5.71505 21.3568 5.99537 21.7185 6.2757C21.7275 6.2757 21.7275 6.28474 21.7275 6.28474C21.7275 6.29379 21.7185 6.30283 21.7094 6.31187C21.402 6.6555 21.1036 6.87253 20.7509 7.12572C20.4344 7.36084 20.0636 7.62308 19.6657 8.01192C18.9062 8.73534 18.6439 9.64866 18.9604 10.4444C19.2679 11.2221 20.0636 11.7014 21.0131 11.7014C21.61 11.7014 22.2429 11.5115 22.8398 11.1407C23.6446 10.6434 24.4042 9.99229 25.0914 9.20557C25.1005 9.19652 25.1005 9.19652 25.1095 9.18748C26.05 10.0737 26.3122 10.354 27.2617 11.4663C27.2798 11.4844 27.2888 11.5024 27.2888 11.5205C27.2888 11.5205 27.2798 11.5296 27.2707 11.5386C26.1675 12.3886 24.8563 13.0668 23.7893 13.6094C23.0025 14.0163 22.3786 14.3328 21.9626 14.6584C21.1849 15.2552 20.8865 16.1414 21.1669 16.9824C21.4562 17.8324 22.3062 18.4021 23.2738 18.4021C23.4185 18.4021 23.5722 18.393 23.726 18.3659C26.0138 17.9771 28.3107 16.8377 30.2006 15.1738C31.1953 16.7653 31.964 18.4202 32.4613 20.0931C32.4794 20.1654 32.4884 20.2106 32.4975 20.2468C32.4884 20.2559 32.4703 20.2649 32.4432 20.2739L32.4342 20.283C29.9474 21.4224 27.2436 21.9559 23.6717 22.0283C22.0711 22.0554 21.2121 23.1857 21.2211 24.2257C21.2302 24.9129 21.5828 25.5549 22.1977 25.989C22.8036 26.414 23.6175 26.6401 24.6031 26.6401C24.8021 26.6401 25.01 26.631 25.2271 26.6129C27.8133 26.3959 30.5533 26.0704 33.2299 24.8315C33.1938 26.206 32.8773 29.579 32.6602 30.3205C32.615 30.4923 32.5789 30.5556 32.3257 30.5737C32.1177 30.5827 31.9097 30.5918 31.7017 30.5918C29.5676 30.5918 27.5692 30.004 25.5436 29.3439C25.3175 29.2715 25.0824 29.2354 24.8563 29.2354C23.8978 29.2354 23.0749 29.9226 22.894 30.8631C22.7132 31.6769 23.0568 32.8434 24.5489 33.4222Z" fill="black"/>
</svg>
