<svg width="34" height="34" viewBox="0 0 34 34" fill="none" xmlns="http://www.w3.org/2000/svg">
<path d="M30.0156 0H3.98438C1.78633 0 0 1.78633 0 3.98438V30.0156C0 32.2137 1.78633 34 3.98438 34H30.0156C32.2137 34 34 32.2137 34 30.0156V3.98438C34 1.78633 32.2137 0 30.0156 0ZM31.3438 30.0156C31.3438 30.7461 30.7461 31.3438 30.0156 31.3438H3.98438C3.25391 31.3438 2.65625 30.7461 2.65625 30.0156V3.98438C2.65625 3.25391 3.25391 2.65625 3.98438 2.65625H30.0156C30.7461 2.65625 31.3438 3.25391 31.3438 3.98438V30.0156Z" fill="black"/>
<path d="M18.9922 6.64062H9.69531V27.3594H12.3516V19.9219H18.9922C22.6512 19.9219 25.6328 16.9402 25.6328 13.2812C25.6328 9.62227 22.6512 6.64062 18.9922 6.64062ZM18.9922 17.2656H12.3516V9.29688H18.9922C21.1902 9.29688 22.9766 11.0832 22.9766 13.2812C22.9766 15.4793 21.1902 17.2656 18.9922 17.2656Z" fill="black"/>
</svg>
