<svg width="44" height="39" viewBox="0 0 44 39" fill="none" xmlns="http://www.w3.org/2000/svg">
<path d="M33.6919 14.4824H8.19621C6.69396 14.4824 5.46484 15.7039 5.46484 17.1968V19.0036C5.46484 25.4588 9.04977 31.3202 14.8283 34.2891C15.2722 34.5181 15.827 34.3485 16.0574 33.8989C16.2879 33.4578 16.1172 32.9064 15.6648 32.6774C10.5008 30.0224 7.28291 24.7802 7.28291 19.0036V17.1968C7.28291 16.6964 7.69262 16.2892 8.19621 16.2892H33.6919C34.1954 16.2892 34.6052 16.6964 34.6052 17.1968V19.0036C34.6052 24.7802 31.3958 30.0224 26.2233 32.6774C25.7794 32.9064 25.6002 33.4578 25.8306 33.8989C25.9928 34.2127 26.3086 34.3909 26.6415 34.3909C26.7866 34.3909 26.9232 34.357 27.0597 34.2891C32.8383 31.3202 36.4232 25.4673 36.4232 19.0121V17.2053C36.4232 15.6954 35.1941 14.4824 33.6919 14.4824Z" fill="black"/>
<path d="M41.8178 33.1355C41.6727 32.7962 41.3483 32.5757 40.9728 32.5757H0.915528C0.5485 32.5757 0.215614 32.7962 0.07051 33.1355C-0.0745941 33.4748 0.0107613 33.865 0.266827 34.1195L2.30682 36.1468C3.51887 37.3429 5.11501 38.0045 6.81358 38.0045H35.0662C36.7648 38.0045 38.3694 37.3429 39.573 36.1468L41.6129 34.1195C41.8776 33.8565 41.9544 33.4663 41.8178 33.1355ZM38.2841 34.866C37.422 35.7227 36.2782 36.1892 35.0662 36.1892H6.81358C5.60154 36.1892 4.45777 35.7227 3.59569 34.866L3.10916 34.3825H38.7792L38.2841 34.866Z" fill="black"/>
<path d="M41.9461 18.749C39.4964 17.1798 35.5786 18.8848 35.1347 19.0799C34.6738 19.2919 34.4775 19.8263 34.6824 20.2759C34.8872 20.7255 35.4249 20.929 35.8859 20.7255C36.765 20.3268 39.5818 19.3937 40.956 20.2674C41.5791 20.6661 41.8778 21.4295 41.8778 22.6086C41.8778 26.2306 34.5287 28.4191 31.6864 28.962L31.0377 29.0892C30.5426 29.1825 30.2268 29.6576 30.3207 30.1495C30.4061 30.5822 30.7902 30.879 31.2169 30.879C31.2767 30.879 31.3364 30.8706 31.3962 30.8621L32.0363 30.7348C32.5143 30.6415 43.7044 28.4615 43.7044 22.6086C43.7044 20.8018 43.1069 19.504 41.9461 18.749Z" fill="black"/>
<path d="M28.033 6.89907C29.5096 5.05836 29.5096 2.18279 28.033 0.342083C27.7172 -0.0481129 27.1453 -0.115973 26.7526 0.19788C26.36 0.511733 26.2917 1.08006 26.6075 1.47026C27.5464 2.63236 27.5464 4.60031 26.6075 5.77089C25.1224 7.6116 25.1224 10.4872 26.6075 12.3279C26.7868 12.5484 27.0514 12.6672 27.316 12.6672C27.5123 12.6672 27.7172 12.5993 27.8879 12.4721C28.2805 12.1582 28.3488 11.5899 28.033 11.1997C27.0855 10.0376 27.0855 8.06966 28.033 6.89907Z" fill="black"/>
<path d="M22.5617 6.89907C24.0469 5.05836 24.0469 2.18279 22.5617 0.342083C22.2459 -0.0481129 21.674 -0.115973 21.2814 0.19788C20.8888 0.511733 20.8205 1.08006 21.1363 1.47026C22.0752 2.63236 22.0752 4.60031 21.1363 5.77089C19.6596 7.6116 19.6596 10.4872 21.1363 12.3279C21.3155 12.5484 21.5801 12.6672 21.8447 12.6672C22.0411 12.6672 22.2459 12.5993 22.4166 12.4721C22.8093 12.1582 22.8775 11.5899 22.5617 11.1997C21.6228 10.0376 21.6228 8.06966 22.5617 6.89907Z" fill="black"/>
<path d="M17.1077 6.89907C18.5843 5.05836 18.5843 2.18279 17.1077 0.342083C16.7919 -0.0481129 16.22 -0.115973 15.8274 0.19788C15.4347 0.511733 15.375 1.08006 15.6822 1.47026C16.6212 2.63236 16.6212 4.60031 15.6822 5.77089C14.1971 7.6116 14.1971 10.4872 15.6822 12.3279C15.8615 12.5484 16.1261 12.6672 16.3907 12.6672C16.587 12.6672 16.7919 12.5993 16.9626 12.4721C17.3552 12.1582 17.4235 11.5899 17.1077 11.1997C16.1602 10.0376 16.1602 8.06966 17.1077 6.89907Z" fill="black"/>
</svg>
