<svg width="46" height="46" viewBox="0 0 46 46" fill="none" xmlns="http://www.w3.org/2000/svg">
<path d="M16.3577 35.6992L9.71431 39.3152C9.29384 39.5674 8.95747 39.8197 8.62109 40.072C12.4894 43.3516 17.535 45.2858 23.001 45.2858C28.4671 45.2858 33.4286 43.3516 37.2969 40.1561C36.9605 39.8197 36.54 39.5674 36.1196 39.3993L28.9716 35.8673C28.0466 35.4469 27.458 34.4378 27.458 33.4286V30.6536C27.6261 30.4013 27.8784 30.149 28.1307 29.8126C29.1398 28.4671 29.8126 26.9535 30.3171 25.3557C31.2422 25.1034 31.9149 24.2625 31.9149 23.2534V20.3101C31.9149 19.6374 31.6626 19.0487 31.1581 18.6282V14.1713C31.1581 14.1713 32.0831 7.44385 22.9169 7.44385C13.7508 7.44385 14.6758 14.1713 14.6758 14.1713V18.4601C14.2553 18.8805 13.919 19.4692 13.919 20.1419V23.0852C13.919 23.842 14.3394 24.5989 14.9281 24.9352C15.6849 28.2149 17.6191 30.4854 17.6191 30.4854V33.1764C17.7872 34.2696 17.1986 35.1946 16.3577 35.6992Z" fill="#ECECF1"/>
<path d="M23.4207 0.716498C11.059 0.548312 0.96781 10.3031 0.71553 22.5807C0.631437 29.5605 3.74288 35.8674 8.62029 39.988C8.95666 39.7357 9.29303 39.4834 9.7135 39.2312L16.3569 35.6152C17.1978 35.1106 17.7864 34.1856 17.7864 33.2606V30.5696C17.7864 30.5696 15.8523 28.215 15.0955 25.0194C14.5068 24.599 14.0863 23.9262 14.0863 23.1694V20.2261C14.0863 19.5534 14.3386 18.9647 14.8432 18.5443V14.1714C14.8432 14.1714 13.9182 7.44395 23.0843 7.44395C32.2505 7.44395 31.3254 14.1714 31.3254 14.1714V18.4602C31.7459 18.8806 32.0823 19.4693 32.0823 20.142V23.0853C32.0823 24.0944 31.4095 24.9353 30.4845 25.1876C29.98 26.7854 29.2231 28.2991 28.2981 29.6445C28.0458 29.9809 27.7935 30.3173 27.6253 30.4855V33.2606C27.6253 34.2697 28.214 35.1947 29.139 35.6993L36.2869 39.2312C36.7074 39.4834 37.1279 39.7357 37.4642 39.988C42.0894 36.1197 45.2008 30.1491 45.2849 23.4217C45.4531 11.06 35.6983 0.968777 23.4207 0.716498Z" fill="#556080"/>
</svg>
