<svg width="22" height="12" viewBox="0 0 22 12" fill="none" xmlns="http://www.w3.org/2000/svg">
<path d="M21.049 10.8638C21.0231 10.8117 21.0009 10.767 20.9786 10.7298C20.6268 10.0929 19.9527 9.30696 18.9601 8.37954L18.9378 8.35719L18.9267 8.34602L18.9156 8.33484H18.9045C18.4526 7.90279 18.1674 7.61227 18.0489 7.46329C17.8304 7.18022 17.7822 6.89343 17.9008 6.60291C17.986 6.38316 18.3045 5.91758 18.8527 5.20991C19.1415 4.83373 19.3712 4.53203 19.5416 4.30483C20.7601 2.67346 21.2898 1.63058 21.1268 1.1799L21.0638 1.07561C21.0231 1.01229 20.912 0.9527 20.7379 0.900556C20.5601 0.848411 20.3342 0.837238 20.0601 0.874484L17.0156 0.896831C16.9674 0.878208 16.897 0.881933 16.8044 0.900556C16.7118 0.922903 16.6674 0.934077 16.6674 0.934077L16.6155 0.960149L16.5748 0.993671C16.5378 1.01602 16.5007 1.05326 16.46 1.10541C16.4192 1.15755 16.3822 1.22087 16.3563 1.29164C16.0229 2.14829 15.6489 2.94536 15.2229 3.68283C14.9637 4.12233 14.7229 4.50224 14.5044 4.82628C14.2859 5.15032 14.1044 5.38497 13.9562 5.53767C13.8081 5.69038 13.6747 5.81329 13.5525 5.90268C13.434 5.9958 13.3414 6.03304 13.2784 6.01815C13.2155 6.00325 13.1562 5.98835 13.0969 5.97718C12.9969 5.91386 12.9191 5.82819 12.8599 5.71645C12.8006 5.60472 12.7599 5.46691 12.7377 5.30302C12.7154 5.13542 12.7043 4.99388 12.7006 4.87097C12.6969 4.75178 12.7006 4.58045 12.7043 4.3607C12.7117 4.14095 12.7154 3.99197 12.7154 3.91375C12.7154 3.64558 12.7191 3.35134 12.7303 3.03475C12.7414 2.71816 12.7488 2.46861 12.7562 2.2861C12.7636 2.1036 12.7673 1.9062 12.7673 1.70134C12.7673 1.49649 12.7562 1.33633 12.7303 1.21715C12.7043 1.10168 12.6673 0.986221 12.6191 0.878208C12.571 0.770195 12.4969 0.684529 12.4006 0.621211C12.3043 0.561618 12.1858 0.513198 12.045 0.475952C11.671 0.390286 11.1969 0.345591 10.6191 0.338142C9.30793 0.323244 8.46717 0.408909 8.09308 0.595139C7.94493 0.673356 7.81159 0.777644 7.69307 0.915454C7.56714 1.07189 7.54862 1.15755 7.64122 1.17245C8.06345 1.23577 8.36346 1.38848 8.54124 1.63058L8.60421 1.75721C8.65236 1.85033 8.70421 2.01421 8.75236 2.24513C8.80051 2.47978 8.83384 2.73678 8.84866 3.01985C8.88199 3.53757 8.88199 3.98079 8.84866 4.34953C8.81162 4.71826 8.77829 5.00506 8.74866 5.20991C8.71532 5.41476 8.67088 5.58237 8.60421 5.70901C8.54124 5.83564 8.4968 5.91386 8.47828 5.94365C8.45606 5.97345 8.44124 5.98835 8.42643 5.9958C8.33383 6.02932 8.24123 6.04794 8.14123 6.04794C8.04123 6.04794 7.92271 5.99952 7.78196 5.89896C7.64122 5.7984 7.49307 5.66431 7.34491 5.48925C7.19306 5.3142 7.02268 5.0721 6.83008 4.75923C6.64119 4.44637 6.44118 4.07763 6.23747 3.65303L6.0671 3.34389C5.95969 3.14649 5.81524 2.85597 5.63375 2.47606C5.44856 2.09615 5.2893 1.73114 5.14855 1.37358C5.093 1.2246 5.00781 1.11286 4.89299 1.03464L4.84114 1.00112C4.8078 0.971323 4.74854 0.941526 4.67076 0.91173C4.59298 0.878208 4.5115 0.855861 4.42631 0.840962L1.52993 0.86331C1.23363 0.86331 1.03362 0.930352 0.92621 1.06444L0.885468 1.12776C0.855838 1.17618 0.844727 1.23204 0.844727 1.31026C0.844727 1.38848 0.866949 1.48532 0.907691 1.59705C1.32993 2.59897 1.7929 3.55992 2.28921 4.49106C2.78552 5.42221 3.21887 6.16713 3.58555 6.73327C3.95222 7.29941 4.32631 7.83575 4.7078 8.33857C5.08929 8.84139 5.34115 9.16543 5.46338 9.30696C5.5856 9.4485 5.68561 9.55651 5.75598 9.62728L6.01895 9.88427C6.18932 10.0556 6.43748 10.2567 6.76341 10.4951C7.09305 10.7335 7.45603 10.9681 7.85233 11.1991C8.25235 11.43 8.71532 11.6162 9.24126 11.7615C9.77091 11.9067 10.2857 11.9663 10.7858 11.9365H12.0006C12.2488 11.9142 12.4339 11.836 12.5599 11.7019L12.6006 11.6497C12.6302 11.6088 12.6562 11.5417 12.6784 11.4523C12.7043 11.3629 12.7154 11.2661 12.7154 11.1581C12.708 10.8527 12.7303 10.577 12.7858 10.3349C12.8377 10.0891 12.8969 9.90662 12.9673 9.78371C13.034 9.6608 13.1117 9.55651 13.1932 9.47084C13.2784 9.38518 13.3377 9.33303 13.3747 9.31814C13.408 9.29951 13.4377 9.28834 13.4599 9.28089C13.6303 9.22502 13.8266 9.28089 14.0562 9.44477C14.2859 9.61238 14.5007 9.81723 14.7007 10.0631C14.9007 10.3089 15.1414 10.5808 15.4266 10.8862C15.7081 11.1916 15.9563 11.4188 16.1674 11.5678L16.3785 11.6944C16.5192 11.7801 16.7044 11.8583 16.9304 11.9291C17.1563 11.9998 17.3526 12.0185 17.523 11.9812L20.2305 11.9402C20.4971 11.9402 20.7083 11.8956 20.8527 11.8062C21.0009 11.7168 21.0898 11.6199 21.1157 11.5119C21.1453 11.4039 21.1453 11.2847 21.1194 11.1506C21.0972 11.0128 21.0712 10.9197 21.049 10.8638Z" fill="#101010"/>
</svg>
