<svg width="24" height="14" viewBox="0 0 24 14" fill="none" xmlns="http://www.w3.org/2000/svg">
<path d="M23.0359 12.142C23.0064 12.0828 22.9812 12.032 22.9559 11.9897C22.5563 11.2663 21.7907 10.3738 20.6633 9.32043L20.6381 9.29505L20.6255 9.28236L20.6129 9.26967H20.6002C20.087 8.77897 19.7631 8.44901 19.6285 8.2798C19.3803 7.95831 19.3256 7.63258 19.4603 7.30263C19.557 7.05305 19.9188 6.52427 20.5413 5.72053C20.8695 5.29328 21.1303 4.95063 21.3238 4.69259C22.7077 2.83976 23.3093 1.65531 23.1242 1.14345L23.0527 1.02501C23.0064 0.953094 22.8802 0.88541 22.6825 0.826188C22.4806 0.766965 22.224 0.754274 21.9127 0.796576L18.4549 0.821957C18.4002 0.800806 18.3203 0.805036 18.2151 0.826188C18.1099 0.851569 18.0595 0.864259 18.0595 0.864259L18.0006 0.893871L17.9543 0.931943C17.9122 0.957324 17.8702 0.999626 17.8239 1.05885C17.7776 1.11807 17.7355 1.18998 17.7061 1.27036C17.3275 2.24331 16.9026 3.14857 16.4189 3.98615C16.1244 4.48531 15.851 4.91679 15.6028 5.28482C15.3546 5.65285 15.1485 5.91935 14.9802 6.09279C14.812 6.26623 14.6605 6.40582 14.5217 6.50735C14.3871 6.6131 14.2819 6.65541 14.2104 6.63848C14.1389 6.62156 14.0716 6.60464 14.0043 6.59195C13.8907 6.52004 13.8024 6.42275 13.7351 6.29584C13.6678 6.16893 13.6215 6.01242 13.5963 5.82629C13.571 5.63593 13.5584 5.47518 13.5542 5.33558C13.55 5.20022 13.5542 5.00563 13.5584 4.75605C13.5668 4.50646 13.571 4.33726 13.571 4.24842C13.571 3.94385 13.5752 3.60966 13.5878 3.25009C13.6005 2.89053 13.6089 2.6071 13.6173 2.39982C13.6257 2.19254 13.6299 1.96834 13.6299 1.73568C13.6299 1.50302 13.6173 1.32112 13.5878 1.18575C13.5584 1.05462 13.5163 0.923482 13.4616 0.800806C13.407 0.67813 13.3228 0.580836 13.2135 0.508922C13.1041 0.441239 12.9695 0.386246 12.8096 0.343944C12.3848 0.24665 11.8463 0.195887 11.1901 0.187427C9.70094 0.170506 8.74605 0.267801 8.32118 0.479311C8.15292 0.568145 8.00148 0.686591 7.86687 0.843108C7.72384 1.02078 7.70281 1.11807 7.80797 1.13499C8.28753 1.20691 8.62826 1.38034 8.83018 1.65531L8.90169 1.79913C8.95638 1.90489 9.01527 2.09102 9.06995 2.35329C9.12464 2.61979 9.1625 2.91168 9.17933 3.23317C9.21719 3.82117 9.21719 4.32456 9.17933 4.74335C9.13726 5.16215 9.0994 5.48787 9.06575 5.72053C9.02789 5.95319 8.97741 6.14355 8.90169 6.28738C8.83018 6.43121 8.7797 6.52004 8.75867 6.55388C8.73343 6.58772 8.7166 6.60464 8.69977 6.6131C8.59461 6.65118 8.48944 6.67233 8.37587 6.67233C8.26229 6.67233 8.12768 6.61733 7.96783 6.50312C7.80797 6.3889 7.63971 6.23662 7.47145 6.0378C7.29898 5.83898 7.10547 5.56401 6.88673 5.20868C6.67219 4.85334 6.44504 4.43455 6.21367 3.95231L6.02017 3.6012C5.89818 3.377 5.73412 3.04704 5.528 2.61556C5.31767 2.18408 5.13679 1.76952 4.97693 1.36342C4.91384 1.19422 4.81708 1.06731 4.68668 0.978475L4.62779 0.940403C4.58993 0.906561 4.52262 0.87272 4.43428 0.838878C4.34594 0.800806 4.2534 0.775425 4.15665 0.758504L0.867088 0.783885C0.53056 0.783885 0.303404 0.860029 0.181412 1.01232L0.13514 1.08423C0.101487 1.13922 0.0888672 1.20268 0.0888672 1.29151C0.0888672 1.38034 0.114107 1.49033 0.160379 1.61724C0.639932 2.75516 1.16576 3.84655 1.72944 4.9041C2.29312 5.96165 2.7853 6.80769 3.20175 7.45068C3.6182 8.09368 4.04307 8.70282 4.47635 9.2739C4.90963 9.84498 5.19568 10.213 5.3345 10.3738C5.47331 10.5345 5.58689 10.6572 5.66682 10.7376L5.96548 11.0294C6.15899 11.224 6.44083 11.4525 6.81101 11.7232C7.1854 11.9939 7.59764 12.2604 8.04775 12.5227C8.50206 12.785 9.02789 12.9965 9.62523 13.1615C10.2268 13.3264 10.8115 13.3941 11.3794 13.3603H12.7591C13.041 13.3349 13.2513 13.2461 13.3943 13.0938L13.4406 13.0346C13.4743 12.988 13.5037 12.9119 13.5289 12.8104C13.5584 12.7088 13.571 12.5988 13.571 12.4762C13.5626 12.1293 13.5878 11.8163 13.6509 11.5413C13.7098 11.2621 13.7771 11.0548 13.8571 10.9152C13.9328 10.7756 14.0211 10.6572 14.1137 10.5599C14.2104 10.4626 14.2777 10.4034 14.3198 10.3864C14.3576 10.3653 14.3913 10.3526 14.4165 10.3441C14.61 10.2807 14.833 10.3441 15.0938 10.5303C15.3546 10.7206 15.5986 10.9533 15.8258 11.2325C16.0529 11.5117 16.3263 11.8205 16.6502 12.1674C16.9699 12.5142 17.2518 12.7723 17.4916 12.9415L17.7313 13.0853C17.8912 13.1826 18.1015 13.2714 18.3581 13.3518C18.6147 13.4322 18.8377 13.4533 19.0312 13.411L22.1062 13.3645C22.4091 13.3645 22.6489 13.3137 22.8129 13.2122C22.9812 13.1107 23.0821 13.0007 23.1116 12.878C23.1452 12.7554 23.1452 12.62 23.1158 12.4677C23.0905 12.3112 23.0611 12.2054 23.0359 12.142Z" fill="white"/>
</svg>
