<svg width="22" height="12" viewBox="0 0 22 12" fill="none" xmlns="http://www.w3.org/2000/svg">
<path d="M21.0489 10.8638C21.0229 10.8117 21.0007 10.767 20.9785 10.7298C20.6266 10.0929 19.9525 9.30696 18.9599 8.37954L18.9377 8.35719L18.9266 8.34602L18.9155 8.33484H18.9044C18.4525 7.90279 18.1673 7.61227 18.0488 7.46329C17.8302 7.18022 17.7821 6.89343 17.9006 6.60291C17.9858 6.38316 18.3043 5.91758 18.8525 5.20991C19.1414 4.83373 19.371 4.53203 19.5414 4.30483C20.76 2.67346 21.2896 1.63058 21.1266 1.1799L21.0637 1.07561C21.0229 1.01229 20.9118 0.9527 20.7377 0.900556C20.56 0.848411 20.334 0.837238 20.0599 0.874484L17.0154 0.896831C16.9673 0.878208 16.8969 0.881933 16.8043 0.900556C16.7117 0.922903 16.6673 0.934077 16.6673 0.934077L16.6154 0.960149L16.5747 0.993671C16.5376 1.01602 16.5006 1.05326 16.4598 1.10541C16.4191 1.15755 16.3821 1.22087 16.3561 1.29164C16.0228 2.14829 15.6487 2.94536 15.2228 3.68283C14.9635 4.12233 14.7227 4.50224 14.5042 4.82628C14.2857 5.15032 14.1042 5.38497 13.9561 5.53767C13.8079 5.69038 13.6746 5.81329 13.5523 5.90268C13.4338 5.9958 13.3412 6.03304 13.2783 6.01815C13.2153 6.00325 13.156 5.98835 13.0968 5.97718C12.9968 5.91386 12.919 5.82819 12.8597 5.71645C12.8005 5.60472 12.7597 5.46691 12.7375 5.30302C12.7153 5.13542 12.7042 4.99388 12.7005 4.87097C12.6968 4.75178 12.7005 4.58045 12.7042 4.3607C12.7116 4.14095 12.7153 3.99197 12.7153 3.91375C12.7153 3.64558 12.719 3.35134 12.7301 3.03475C12.7412 2.71816 12.7486 2.46861 12.756 2.2861C12.7634 2.1036 12.7671 1.9062 12.7671 1.70134C12.7671 1.49649 12.756 1.33633 12.7301 1.21715C12.7042 1.10168 12.6671 0.986221 12.619 0.878208C12.5708 0.770195 12.4968 0.684529 12.4005 0.621211C12.3042 0.561618 12.1856 0.513198 12.0449 0.475952C11.6708 0.390286 11.1967 0.345591 10.6189 0.338142C9.30778 0.323244 8.46701 0.408909 8.09293 0.595139C7.94478 0.673356 7.81144 0.777644 7.69292 0.915454C7.56699 1.07189 7.54847 1.15755 7.64107 1.17245C8.0633 1.23577 8.36331 1.38848 8.54109 1.63058L8.60406 1.75721C8.65221 1.85033 8.70406 2.01421 8.75221 2.24513C8.80036 2.47978 8.83369 2.73678 8.84851 3.01985C8.88184 3.53757 8.88184 3.98079 8.84851 4.34953C8.81147 4.71826 8.77813 5.00506 8.7485 5.20991C8.71517 5.41476 8.67072 5.58237 8.60406 5.70901C8.54109 5.83564 8.49665 5.91386 8.47813 5.94365C8.4559 5.97345 8.44109 5.98835 8.42627 5.9958C8.33368 6.02932 8.24108 6.04794 8.14108 6.04794C8.04108 6.04794 7.92255 5.99952 7.78181 5.89896C7.64107 5.7984 7.49291 5.66431 7.34476 5.48925C7.1929 5.3142 7.02253 5.0721 6.82993 4.75923C6.64104 4.44637 6.44103 4.07763 6.23732 3.65303L6.06695 3.34389C5.95954 3.14649 5.81509 2.85597 5.6336 2.47606C5.44841 2.09615 5.28915 1.73114 5.1484 1.37358C5.09284 1.2246 5.00766 1.11286 4.89284 1.03464L4.84098 1.00112C4.80765 0.971323 4.74839 0.941526 4.67061 0.91173C4.59283 0.878208 4.51135 0.855861 4.42616 0.840962L1.52978 0.86331C1.23347 0.86331 1.03347 0.930352 0.926058 1.06444L0.885316 1.12776C0.855685 1.17618 0.844574 1.23204 0.844574 1.31026C0.844574 1.38848 0.866797 1.48532 0.907539 1.59705C1.32977 2.59897 1.79275 3.55992 2.28906 4.49106C2.78537 5.42221 3.21872 6.16713 3.58539 6.73327C3.95207 7.29941 4.32616 7.83575 4.70765 8.33857C5.08914 8.84139 5.341 9.16543 5.46322 9.30696C5.58545 9.4485 5.68545 9.55651 5.75583 9.62728L6.0188 9.88427C6.18917 10.0556 6.43733 10.2567 6.76326 10.4951C7.0929 10.7335 7.45587 10.9681 7.85218 11.1991C8.25219 11.43 8.71517 11.6162 9.24111 11.7615C9.77076 11.9067 10.2856 11.9663 10.7856 11.9365H12.0004C12.2486 11.9142 12.4338 11.836 12.5597 11.7019L12.6005 11.6497C12.6301 11.6088 12.656 11.5417 12.6782 11.4523C12.7042 11.3629 12.7153 11.2661 12.7153 11.1581C12.7079 10.8527 12.7301 10.577 12.7857 10.3349C12.8375 10.0891 12.8968 9.90662 12.9671 9.78371C13.0338 9.6608 13.1116 9.55651 13.1931 9.47084C13.2783 9.38518 13.3375 9.33303 13.3746 9.31814C13.4079 9.29951 13.4375 9.28834 13.4598 9.28089C13.6301 9.22502 13.8264 9.28089 14.0561 9.44477C14.2857 9.61238 14.5005 9.81723 14.7005 10.0631C14.9005 10.3089 15.1413 10.5808 15.4265 10.8862C15.708 11.1916 15.9561 11.4188 16.1672 11.5678L16.3784 11.6944C16.5191 11.7801 16.7043 11.8583 16.9302 11.9291C17.1562 11.9998 17.3525 12.0185 17.5228 11.9812L20.2303 11.9402C20.497 11.9402 20.7081 11.8956 20.8526 11.8062C21.0007 11.7168 21.0896 11.6199 21.1155 11.5119C21.1452 11.4039 21.1452 11.2847 21.1192 11.1506C21.097 11.0128 21.0711 10.9197 21.0489 10.8638Z" fill="#101010"/>
</svg>
