<svg width="44" height="34" viewBox="0 0 44 34" fill="none" xmlns="http://www.w3.org/2000/svg">
<path d="M42.545 20.0058C28.9015 17.7363 29.7558 7.88414 21.3188 5.53457C19.8236 5.10738 18.4619 5.40107 18.1148 3.95929C17.6876 2.22382 16.5662 0.0878485 13.7628 0.00774956C13.5225 0.00774956 10.2651 -0.205848 8.18255 1.60973C7.78205 1.98352 7.24806 2.62431 6.98106 2.81121C5.59268 3.8258 1.93483 4.01269 1.18724 4.41319C0.706648 4.68018 -0.84193 6.52246 0.59985 6.44236C0.62655 6.44236 1.42754 6.38896 2.09503 6.25546C3.02952 6.06857 6.79417 5.45447 7.64855 5.42777C8.10245 5.37437 9.11703 6.22876 8.66314 6.68266C6.82086 8.15114 7.03446 10.8211 7.03446 10.8478C7.03446 19.3383 16.4594 21.2073 17.3939 21.4743C18.3284 21.7412 18.5954 22.8359 18.5954 23.1296C18.5954 25.2923 18.542 29.3506 18.5153 29.7778C18.4886 30.0448 18.5687 31.1662 18.2216 31.3798C17.7143 31.8337 15.6584 31.273 15.338 31.1929C14.0031 30.8725 8.85004 30.9259 12.5079 32.8216C13.5225 33.3823 14.3769 33.5959 15.4982 33.5959C18.8357 33.2488 20.2508 33.3022 22.28 33.4624C23.4814 33.5425 24.4159 32.608 24.3358 31.4599C24.2557 30.4186 24.2557 28.1759 24.3358 26.4671C24.3358 26.3336 24.3358 25.5059 24.3091 23.7971C24.3358 22.9427 25.0834 22.7558 25.4572 22.7024C28.3141 22.8893 33.12 23.3699 41.8241 21.7946C42.7586 21.5544 43.88 20.2194 42.545 20.0058ZM22.627 29.0303C22.5736 29.9914 22.4935 31.2463 22.4935 31.273C22.4401 31.6468 20.3309 31.6201 20.3309 31.6201C20.3309 31.6201 20.3309 24.9452 20.3309 22.649C20.3309 22.649 20.3309 22.0883 20.945 22.1684L21.9863 22.3286C22.2266 22.4354 22.6537 22.6223 22.6804 23.4233C22.7071 25.2923 22.7071 27.1613 22.627 29.0303ZM29.6757 19.9257C23.9353 19.5252 16.9934 18.3504 14.0832 14.2654C13.4958 13.4377 13.122 12.6367 12.9885 12.076C12.8283 11.5153 12.6147 10.8478 12.2142 10.5808C11.8938 10.3672 11.5734 10.6876 11.5734 11.0614C11.5734 11.1682 11.52 15.7605 17.2871 18.5106C18.9959 19.2849 17.0201 19.9524 15.6584 19.4718C11.7603 18.03 8.34274 15.1464 8.36944 10.9279C8.36944 9.61962 8.63644 7.96424 9.91802 7.29675C10.4787 6.97635 10.5855 6.44236 10.3986 6.20206C9.33063 5.13408 8.76994 4.68018 9.03693 3.5054C9.19713 2.81121 9.35733 2.35732 9.97142 1.98352C11.2263 1.18253 13.4691 1.20923 13.6293 1.20923C17.4473 1.34273 16.7531 6.06856 17.741 6.09526C23.8552 6.20206 26.5786 10.474 28.8214 13.9717C29.9694 15.6804 31.1442 18.1101 31.5981 19.365C31.6782 19.7655 31.518 20.0058 29.6757 19.9257Z" fill="#231F20"/>
<path d="M11.066 2.73111C10.5854 2.73111 10.1048 3.02481 10.0781 3.5321C10.1048 4.03939 10.5854 4.33309 11.066 4.33309C11.5733 4.33309 12.0539 4.03939 12.0806 3.5321C12.0539 3.02481 11.6 2.73111 11.066 2.73111Z" fill="#231F20"/>
</svg>
